<!DOCTYPE svg PUBLIC "-//W3C//DTD SVG 1.1//EN" "http://www.w3.org/Graphics/SVG/1.1/DTD/svg11.dtd">
<!-- Uploaded to: SVG Repo, www.svgrepo.com, Transformed by: SVG Repo Mixer Tools -->
<svg width="800px" height="800px" viewBox="-25.92 -25.92 99.84 99.84" id="a" xmlns="http://www.w3.org/2000/svg" fill="#ffffff" stroke="#ffffff" stroke-width="2.976" transform="matrix(1, 0, 0, 1, 0, 0)rotate(-45)">
<g id="SVGRepo_bgCarrier" stroke-width="0"/>
<g id="SVGRepo_tracerCarrier" stroke-linecap="round" stroke-linejoin="round" stroke="#CCCCCC" stroke-width="2.976">
<defs>
<style>.d{fill:none;stroke:#ffffff;stroke-linecap:round;stroke-linejoin:round;}</style>
</defs>
<circle id="b" class="d" cx="23.9966" cy="23.05" r="5.1665"/>
<path id="c" class="d" d="M19.5164,8.5241L6.2422,34.5775c-3.1857,6.2526,3.2748,10.0822,6.87,6.608l3.4641-3.3476c5.8469-5.6503,9.2283-5.5305,14.9625,.2038l2.4743,2.4743c4.416,4.416,10.9172,.1443,7.7724-5.9675L28.3949,8.5241c-2.0742-4.0312-6.8237-4.0331-8.8785,0Z"/>
</g>
<g id="SVGRepo_iconCarrier">
<defs>
<style>.d{fill:none;stroke:#ffffff;stroke-linecap:round;stroke-linejoin:round;}</style>
</defs>
<circle id="b" class="d" cx="23.9966" cy="23.05" r="5.1665"/>
<path id="c" class="d" d="M19.5164,8.5241L6.2422,34.5775c-3.1857,6.2526,3.2748,10.0822,6.87,6.608l3.4641-3.3476c5.8469-5.6503,9.2283-5.5305,14.9625,.2038l2.4743,2.4743c4.416,4.416,10.9172,.1443,7.7724-5.9675L28.3949,8.5241c-2.0742-4.0312-6.8237-4.0331-8.8785,0Z"/>
</g>
</svg>